<svg width="18" height="17" viewBox="0 0 18 17" fill="none" xmlns="http://www.w3.org/2000/svg">
<g id="Group 93">
<path id="Vector" opacity="0.7" d="M6.85308 3.67749L6.8531 3.67746L6.85428 3.67542C6.85429 3.67541 6.8543 3.6754 6.8543 3.67539C7.31994 2.8757 7.64362 2.32133 7.92275 1.92961C8.20385 1.53513 8.3713 1.40799 8.48221 1.35902L8.18129 0.677365L8.48221 1.35902C8.8115 1.21366 9.18817 1.21366 9.51746 1.35902C9.62849 1.40804 9.79613 1.53534 10.0775 1.93018C10.3569 2.32224 10.6809 2.87712 11.1469 3.67749L16.038 12.0775C16.5041 12.8779 16.8267 13.4334 17.0293 13.8692C17.2337 14.3086 17.2598 14.514 17.2475 14.63C17.2104 14.98 17.0249 15.3002 16.7343 15.5095C16.636 15.5804 16.44 15.661 15.9531 15.7053C15.4703 15.7493 14.8231 15.75 13.8913 15.75H13.8912H4.10897H4.10883C3.17702 15.75 2.52975 15.7493 2.04699 15.7053C1.56005 15.661 1.36403 15.5803 1.2657 15.5095C0.975146 15.3002 0.789625 14.98 0.75252 14.63C0.740232 14.514 0.7663 14.3086 0.970689 13.8692C1.17334 13.4334 1.49591 12.8779 1.96198 12.0775L6.85308 3.67749Z" fill="white" stroke="white" stroke-width="1.5" stroke-linecap="round" stroke-linejoin="round"/>
<rect id="Rectangle 287" x="10" y="10.5" width="2" height="5" rx="1" transform="rotate(-180 10 10.5)" fill="#FEAD70"/>
<rect id="Rectangle 288" x="10" y="13.5" width="2" height="2" rx="1" transform="rotate(-180 10 13.5)" fill="#FEAD70"/>
</g>
</svg>
