<svg width="600" height="360" viewBox="0 0 600 360" fill="none" xmlns="http://www.w3.org/2000/svg">
<mask id="mask0_107_10" style="mask-type:luminance" maskUnits="userSpaceOnUse" x="0" y="0" width="600" height="360">
<path d="M600 0H0V360H600V0Z" fill="white"/>
</mask>
<g mask="url(#mask0_107_10)">
<path d="M598 -114H0V484H598V-114Z" fill="white"/>
<path d="M598 -114H0V484H598V-114Z" fill="#0D141C"/>
<path d="M289.671 156.075H334.099L334.014 168.454H305.187V181.68H331.81V194.059H305.187V215.51H289.671V156.075ZM370.524 155.142C376.572 155.142 382.027 156.471 386.888 159.127C391.806 161.784 395.649 165.43 398.419 170.065C401.245 174.7 402.658 179.9 402.658 185.665C402.658 191.487 401.245 196.744 398.419 201.436C395.649 206.127 391.806 209.83 386.888 212.543C382.027 215.256 376.572 216.612 370.524 216.612C364.476 216.612 358.993 215.284 354.076 212.627C349.215 209.914 345.371 206.212 342.545 201.52C339.775 196.772 338.39 191.487 338.39 185.665C338.39 179.9 339.775 174.7 342.545 170.065C345.371 165.43 349.215 161.784 354.076 159.127C358.993 156.471 364.476 155.142 370.524 155.142ZM370.694 168.284C367.755 168.284 365.013 169.047 362.47 170.574C359.982 172.1 358.004 174.219 356.534 176.932C355.065 179.589 354.33 182.528 354.33 185.75C354.33 189.029 355.065 192.024 356.534 194.738C358.061 197.394 360.067 199.514 362.554 201.097C365.041 202.623 367.755 203.386 370.694 203.386C373.633 203.386 376.318 202.623 378.748 201.097C381.236 199.514 383.186 197.394 384.599 194.738C386.012 192.024 386.718 189.029 386.718 185.75C386.718 182.528 386.012 179.589 384.599 176.932C383.186 174.219 381.236 172.1 378.748 170.574C376.318 169.047 373.633 168.284 370.694 168.284ZM411.383 156.075H426.899V202.284H452.081V215.51H411.383V156.075ZM460.193 156.075H475.709V215.51H460.193V156.075ZM516.621 155.142C522.669 155.142 528.123 156.471 532.984 159.127C537.902 161.784 541.746 165.43 544.515 170.065C547.341 174.7 548.755 179.9 548.755 185.665C548.755 191.487 547.341 196.744 544.515 201.436C541.746 206.127 537.902 209.83 532.984 212.543C528.123 215.256 522.669 216.612 516.621 216.612C510.572 216.612 505.09 215.284 500.172 212.627C495.311 209.914 491.467 206.212 488.641 201.52C485.871 196.772 484.487 191.487 484.487 185.665C484.487 179.9 485.871 174.7 488.641 170.065C491.467 165.43 495.311 161.784 500.172 159.127C505.09 156.471 510.572 155.142 516.621 155.142ZM516.79 168.284C513.851 168.284 511.109 169.047 508.566 170.574C506.079 172.1 504.1 174.219 502.631 176.932C501.161 179.589 500.426 182.528 500.426 185.75C500.426 189.029 501.161 192.024 502.631 194.738C504.157 197.394 506.164 199.514 508.651 201.097C511.138 202.623 513.851 203.386 516.79 203.386C519.729 203.386 522.414 202.623 524.845 201.097C527.332 199.514 529.282 197.394 530.695 194.738C532.108 192.024 532.815 189.029 532.815 185.75C532.815 182.528 532.108 179.589 530.695 176.932C529.282 174.219 527.332 172.1 524.845 170.574C522.414 169.047 519.729 168.284 516.79 168.284Z" fill="url(#paint0_linear_107_10)"/>
<path d="M81.3126 156.245C87.1346 156.245 91.6565 157.545 94.8784 160.145C98.1568 162.688 99.796 166.278 99.796 170.913C99.796 174.587 98.7786 177.611 96.7437 179.985C94.7653 182.359 91.9674 183.885 88.3499 184.563C92.9283 185.128 96.4611 186.739 98.9481 189.396C101.492 191.996 102.764 195.388 102.764 199.57C102.764 204.601 100.898 208.529 97.1676 211.356C93.437 214.125 88.2085 215.51 81.4822 215.51H57.0637V156.245H81.3126ZM81.2278 183.122C85.9758 183.122 89.6499 182.104 92.25 180.07C94.9067 178.035 96.235 175.124 96.235 171.337C96.235 167.663 94.9067 164.808 92.25 162.773C89.6499 160.738 85.9758 159.721 81.2278 159.721H60.6247V183.122H81.2278ZM81.2278 211.949C86.9367 212.006 91.3456 210.932 94.4545 208.727C97.6198 206.466 99.2025 203.273 99.2025 199.146C99.2025 195.133 97.6198 192.053 94.4545 189.905C91.3456 187.7 86.9367 186.598 81.2278 186.598H60.6247V211.949H81.2278ZM119.534 156.245H157.773V159.721H123.096V183.376H153.958V186.937H123.096V212.034H158.875V215.51H119.534V156.245ZM219.893 215.51L212.177 198.638H177.499L169.869 215.51H165.968L192.846 156.245H196.661L223.793 215.51H219.893ZM179.026 195.077H210.566L194.711 160.314L179.026 195.077ZM221.326 156.245H264.906V159.721H244.897V215.51H241.336V159.721H221.326V156.245Z" fill="url(#paint1_linear_107_10)"/>
</g>
<defs>
<linearGradient id="paint0_linear_107_10" x1="283.905" y1="225.5" x2="537.155" y2="225.5" gradientUnits="userSpaceOnUse">
<stop stop-color="#BC60FF"/>
<stop offset="1" stop-color="#9494FF"/>
</linearGradient>
<linearGradient id="paint1_linear_107_10" x1="46.8894" y1="225.5" x2="255.09" y2="225.5" gradientUnits="userSpaceOnUse">
<stop stop-color="#FF7D7D"/>
<stop offset="1" stop-color="#BC60FF"/>
</linearGradient>
</defs>
</svg>
