<svg width="84" height="24" viewBox="0 0 84 24" fill="none" xmlns="http://www.w3.org/2000/svg">
<rect width="84" height="24" rx="12" fill="#3C4B63"/>
<path d="M48.2428 11.8329C48.2428 12.0868 48.4729 12.1586 48.703 12.1586C49.1967 12.1586 49.3053 11.774 49.3053 11.2637C49.1605 11.3534 48.8917 11.3714 48.6668 11.4329C48.4367 11.4868 48.2402 11.5842 48.2402 11.8304L48.2428 11.8329Z" fill="white"/>
<path d="M45.2689 9.36133H44.5605V10.4281H45.2689C45.6179 10.4281 45.8686 10.2998 45.8686 9.90752C45.8686 9.51518 45.6101 9.36133 45.2689 9.36133Z" fill="white"/>
<path d="M52.7479 13.0107C52.4972 13.6979 52.1275 13.8287 51.4269 13.8287H50.9952L50.9409 12.9491H51.3003C51.5381 12.9491 51.7139 12.8158 51.7139 12.6004C51.7139 12.4312 51.5122 11.9491 51.4528 11.7798L50.6385 9.60022H51.7346L52.3317 11.5209H52.3446L52.9418 9.60022H53.19C52.2542 7.48471 50.124 6 47.6501 6C44.3153 6 41.6035 8.68991 41.6035 11.9978C41.6035 15.3057 44.3153 17.9956 47.6501 17.9956C50.9849 17.9956 53.6967 15.3057 53.6967 11.9978C53.6967 11.5798 53.6527 11.1721 53.57 10.7772L52.7531 13.0081L52.7479 13.0107ZM45.4372 11.2978H44.5609V12.7337H43.4777V8.46425H45.4372C46.236 8.46425 46.9366 8.81043 46.9366 9.831C46.9366 10.8516 46.3808 11.3003 45.4372 11.3003V11.2978ZM49.3847 12.7337C49.3485 12.6363 49.3356 12.5414 49.3226 12.4389C49.0564 12.7158 48.6609 12.8261 48.2834 12.8261C47.6811 12.8261 47.2054 12.5235 47.2054 11.8798C47.2054 10.8593 48.3248 10.9388 49.0435 10.7926C49.2192 10.7567 49.3175 10.6952 49.3175 10.5028C49.3175 10.2669 49.0305 10.1772 48.8186 10.1772C48.5316 10.1772 48.3506 10.3028 48.3015 10.5695H47.3347C47.3528 10.1592 47.5467 9.89255 47.8285 9.731C48.1076 9.57458 48.4747 9.51304 48.8315 9.51304C49.5786 9.51304 50.305 9.67715 50.305 10.5618V11.9311C50.305 12.1978 50.305 12.4876 50.4265 12.7337H49.3873H49.3847Z" fill="white"/>
<path d="M9 15.2186L12.6231 11.2731C13.2806 10.5988 13.8006 10.1086 14.458 9.49402V9.45337H9.27235V7H18.8102V8.86035L15.3521 12.6432C14.7166 13.2984 14.1279 13.9321 13.4704 14.4845V14.5251H19V17H9V15.2209V15.2186Z" fill="white"/>
<path d="M23.0048 13.1527C23.1984 14.6602 24.34 15.3398 25.8662 15.3398C26.7815 15.3398 27.5459 15.0344 28.2902 14.6107L29.4946 16.729C27.8175 17.7634 26.9047 18 25.484 18C21.9135 18 20 15.3287 20 12.1431C20 8.95736 21.5766 6 25.3131 6C28.3379 6 30 8.62448 30 11.7414C30 12.3521 29.9346 12.8941 29.8919 13.1527H23.0048ZM27.1159 10.707C27.1159 9.83769 26.5552 8.50069 25.049 8.50069C23.6736 8.50069 23.0676 9.7414 22.9821 10.707H27.1159Z" fill="white"/>
<path d="M38.73 7.01913C37.8975 7.01913 36.875 7.09087 36.245 7.96604V7H33V17H36.25V12.1746C36.25 11.9283 36.2725 11.6844 36.315 11.4787C36.53 10.5175 37.3425 9.90531 38.5375 9.90531C38.9 9.90531 40.0625 9.90531 41 9.90531V7.05978C39.1775 7.01913 39.0275 7.01913 38.7275 7.01913H38.73Z" fill="white"/>
<path d="M57.0938 17V7.10156H60.5664C62.6445 7.10156 63.6221 8.27051 63.6152 9.72656C63.6221 10.998 62.8633 11.5654 62.002 11.8047V11.9004C62.9248 11.9551 64.0049 12.8027 64.0117 14.375C64.0049 15.8584 63.0273 17 60.6895 17H57.0938ZM58.3242 15.9062H60.6758C62.2275 15.9062 62.8291 15.2227 62.8223 14.3613C62.8291 13.3564 62.0156 12.502 60.7441 12.502H58.3242V15.9062ZM58.3242 11.4355H60.5254C61.5986 11.4424 62.4395 10.7725 62.4395 9.74023C62.4395 8.87891 61.8584 8.19531 60.5664 8.19531H58.3242V11.4355ZM65.8113 17V9.57617H66.9871V17H65.8113ZM65.5789 7.56641C65.5721 7.12891 65.948 6.78027 66.3992 6.78711C66.8504 6.78027 67.2264 7.12891 67.2332 7.56641C67.2264 7.99707 66.8504 8.3457 66.3992 8.3457C65.948 8.3457 65.5721 7.99707 65.5789 7.56641ZM68.8414 17V16.1113L73.025 10.7383V10.6562H68.9781V9.57617H74.5426V10.5059L70.482 15.8379V15.9199H74.6793V17H68.8414Z" fill="white"/>
</svg>
