<svg width="30" height="30" viewBox="0 0 30 30" fill="none" xmlns="http://www.w3.org/2000/svg">
<path d="M17.1988 6.2008C17.244 6.27194 17.3043 6.338 17.3093 6.40914C17.3747 6.61749 17.5707 6.74453 17.5908 6.95795C17.6009 7.0291 17.6913 7.05959 17.7366 7.09007C17.7868 7.15614 17.7516 7.23236 17.8522 7.33399C17.8974 7.36448 17.8622 7.4407 17.8723 7.51185C17.9175 7.54233 17.9678 7.57282 18.013 7.60839C18.4402 8.28424 18.4855 9.07189 17.9879 9.80363C17.9075 9.88494 17.8321 9.99673 17.8019 10.1085C17.7617 10.1492 17.6763 10.1898 17.636 10.2305C17.6461 10.3016 17.6913 10.3321 17.7416 10.4033C17.5255 10.4592 17.5003 10.6421 17.3395 10.764C17.2943 10.764 17.2088 10.7742 17.1636 10.7793C17.043 10.9013 16.9173 10.947 16.7916 11.0283C16.7514 11.0689 16.7615 11.1757 16.7665 11.2112C16.5604 11.3738 16.2639 11.4755 15.9523 11.4704C15.9121 11.4704 15.8769 11.5873 15.8317 11.5873C15.6105 11.6076 15.3441 11.5974 15.128 11.6178C15.0375 11.5923 14.9822 11.5263 14.8918 11.4958C14.8063 11.506 14.7158 11.511 14.6254 11.4856C14.4796 11.3891 14.3037 11.3738 14.163 11.3129C14.0725 11.2824 13.9066 11.3738 13.8111 11.3129C13.5146 11.0537 13.2231 10.7945 13.0572 10.5201C12.9517 10.3524 12.7657 10.2965 12.7054 10.1238C12.6953 10.0526 12.7305 9.94084 12.64 9.91543C12.4541 9.85953 12.5345 9.74774 12.5194 9.63594C12.4641 9.53431 12.4541 9.46317 12.3586 9.36154C12.3033 9.25991 12.3736 9.10746 12.3184 8.97026C12.3184 8.93468 12.3535 8.89403 12.3485 8.85846C12.2832 8.65012 12.3887 8.42145 12.3686 8.24359C12.3535 8.13688 12.3837 7.98951 12.4189 7.87772C12.5295 7.64905 12.63 7.38989 12.831 7.15614C12.831 7.12056 12.821 7.04942 12.816 7.01385C12.8562 6.9732 12.9014 6.9732 12.9416 6.92746C13.012 6.74453 13.0823 6.59208 13.1979 6.43455C13.3538 6.24145 13.6 6.07376 13.8011 5.87558C13.9217 5.7587 14.0876 5.66724 14.2032 5.47922C14.2434 5.43856 14.3841 5.49954 14.4243 5.45889C14.545 5.34202 14.7259 5.35726 14.8465 5.27595C14.9722 5.19465 14.947 5.3725 15.0727 5.32677C15.1581 5.32169 15.1984 5.28104 15.2838 5.2353C15.4095 5.18449 15.5552 5.28104 15.6909 5.30136C15.8216 5.2912 15.9573 5.31153 16.1031 5.40808C16.2941 5.53511 16.7313 5.48938 16.8017 5.73838C16.9073 5.90607 17.0982 6.03311 17.2088 6.2008H17.1988Z" fill="#C20030"/>
<path d="M24.6216 9.01619C24.6216 8.9044 24.6216 8.83835 24.5763 8.72148C24.5663 8.60969 24.6517 8.48774 24.6115 8.3353C24.5864 8.29465 24.5311 8.24892 24.5361 8.21335C24.6115 7.97962 24.6165 7.7662 24.5964 7.51214C24.5763 7.43592 24.5512 7.39527 24.5261 7.35462C24.5311 7.31906 24.5462 7.253 24.5562 7.18186C24.5613 6.96845 24.4959 6.81093 24.4306 6.61784C24.4105 6.54163 24.3552 6.49589 24.3451 6.38411C24.32 6.34346 24.2647 6.29264 24.2698 6.25708C24.325 5.94712 24.1793 5.69814 24.1341 5.40343C24.0637 5.06807 23.7471 4.85465 23.6516 4.50913C23.6516 4.47356 23.7621 4.4888 23.7923 4.49389C24.0386 4.72762 24.315 5.00201 24.3803 5.34245C24.4256 5.45932 24.4055 5.56603 24.4557 5.64733C24.6668 5.90647 24.702 6.24183 24.7422 6.57211C24.7372 6.60768 24.8025 6.58736 24.8276 6.62801C24.8226 6.66358 24.8075 6.72963 24.8327 6.77028C24.9935 6.94812 24.893 7.14121 24.9281 7.32922C24.9482 7.40544 24.9684 7.44609 24.9935 7.48674C24.9885 7.52231 24.908 7.61377 24.898 7.64426C25.0287 7.81702 25.0839 8.04567 25.0488 8.24892C25.1995 8.32006 25.1292 8.51823 25.1644 8.67067C25.1895 8.71132 25.2196 8.72148 25.2498 8.72656C25.295 8.66558 25.3352 8.60461 25.3503 8.53347C25.3704 8.24892 25.3805 8.00502 25.3302 7.7408C25.285 7.62393 25.2749 7.51214 25.3553 7.42576C25.295 7.41052 25.2749 7.3343 25.2498 7.29365C25.1392 6.84142 25.094 6.32821 24.9583 5.86582C24.9583 5.86582 24.9935 5.84041 25.0035 5.80485C24.9583 5.39835 24.6517 5.01725 24.506 4.60567C24.4859 4.53454 24.3652 4.44307 24.31 4.36685C24.31 4.36685 24.31 4.33129 24.32 4.29572C24.4758 4.31604 24.5964 4.47356 24.6819 4.59043C24.8477 4.82417 25.0337 5.08839 25.0839 5.34753C25.1694 5.58127 25.3001 5.82517 25.3503 6.05383C25.3855 6.20626 25.4961 6.30281 25.5664 6.42984C25.6066 6.54671 25.5865 6.64833 25.5966 6.76012C25.6418 7.02434 25.7222 7.27841 25.7675 7.53755C25.8328 7.73064 25.8579 7.94913 25.7926 8.11681C25.7072 8.42168 25.9032 8.75197 25.9836 9.01619C26.0288 9.13306 25.9735 9.26517 25.9233 9.36171C25.9182 9.39728 25.9735 9.44301 25.9635 9.47858C25.9082 9.6107 25.9534 9.72756 25.9283 9.86476C25.8931 9.89016 25.9735 9.98163 25.9283 10.0426C25.8931 10.0731 25.863 10.0629 25.8227 10.0934C25.7725 10.19 25.8177 10.3068 25.7976 10.4085C25.6971 10.6015 25.7474 10.8607 25.5614 10.9979C25.491 11.0182 25.486 11.0538 25.4508 11.0792C25.481 11.0843 25.5061 11.1249 25.5312 11.1706C25.4961 11.196 25.4609 11.191 25.4257 11.2164C25.4157 11.2824 25.5463 11.3688 25.5715 11.4095C25.5212 11.6838 25.3202 11.9277 25.3252 12.2529C25.3101 12.319 25.295 12.4257 25.28 12.4918C25.2196 12.6544 25.099 12.7763 25.0387 12.9389C25.0287 13.01 24.898 13.0151 24.8829 13.0812C24.8025 13.1726 24.8075 13.3149 24.7522 13.447C24.707 13.508 24.6165 13.4877 24.5412 13.5436C24.4557 13.6655 24.4658 13.7773 24.4105 13.9094C24.315 14.0669 24.2044 14.2397 24.114 14.3972C24.0084 14.6259 23.8325 14.8444 23.6365 15.0171C23.6063 15.0121 23.536 15.0324 23.5008 15.0578C23.4003 15.2509 23.2897 15.3931 23.0786 15.4897C23.0485 15.4846 23.0032 15.632 22.963 15.6625C22.8173 15.7742 22.7318 15.8962 22.5559 16.0029C22.4906 16.0232 22.4554 16.0486 22.38 15.9267C22.1489 16.3383 21.8423 16.6635 21.5055 16.948C21.3296 17.0496 21.1537 17.0395 21.0381 17.1563C20.6562 17.5374 20.0531 17.9389 19.9827 17.9947C19.9526 17.9897 19.837 18.1624 19.837 18.1624C19.7113 18.1726 19.7867 18.1828 19.6711 18.1624C19.6711 18.1624 19.6661 18.3555 19.5103 18.3911C19.1836 18.4571 19.0931 18.8433 19.073 19.0008C19.058 19.0821 19.0077 19.0262 18.9675 19.0567C18.9323 19.0872 18.9574 19.138 18.9172 19.1685C18.7765 19.2549 18.6509 19.4327 18.5353 19.5699C18.5001 19.6004 18.475 19.5547 18.4348 19.5852C18.3996 19.6157 18.2237 19.8342 18.1634 20.0272C18.0126 20.3626 17.8518 20.6624 17.6457 20.9012C17.5954 20.9571 17.7613 21.1807 17.7512 21.2569C17.706 21.3636 17.6105 21.3789 17.5603 21.4856C17.52 21.7498 17.505 22.0394 17.4597 22.3189C17.3843 22.5933 17.4748 22.7864 17.515 23.0252C17.5552 23.2284 17.505 23.4926 17.515 23.6908C17.5301 23.8534 17.6356 24.0262 17.6206 24.1786C17.6206 24.4174 17.5703 24.3869 17.6206 24.5851C17.6155 24.702 17.5753 24.8189 17.6055 24.9002C17.5954 25.0577 17.5703 25.1542 17.5603 25.3117C17.5251 25.3524 17.4597 25.4235 17.4597 25.4642C17.4346 25.8554 17.1833 26.2009 16.9169 26.455C16.7511 26.5617 16.6104 26.7243 16.4244 26.7091C16.3289 26.704 16.0173 26.9072 15.9118 26.9326C15.6354 27.0139 15.4092 27.0139 15.1428 26.9733C14.8463 26.892 14.6151 26.8158 14.4141 26.516C14.2935 26.3788 14.0874 26.4296 14.007 26.2213C13.9819 26.14 13.811 26.0942 13.7858 26.0536C13.63 25.9113 13.5496 25.7436 13.434 25.5709C13.3536 25.3625 13.4139 25.2203 13.3184 25.017C13.2229 24.8951 13.1777 24.8036 13.0822 24.6817C12.9516 24.5191 13.1124 24.2802 13.0169 24.1176C12.9516 24.077 12.8862 23.9906 12.8561 23.9093C12.7907 23.7467 12.8058 23.513 12.7153 23.3453C12.6651 23.142 12.6952 22.4053 12.7354 22.2071C12.7455 22.1664 12.6299 22.1105 12.6349 22.0699C12.65 21.7854 12.7505 21.5059 12.7254 21.2112C12.7555 21.0537 12.7405 20.9266 12.8812 20.7894C12.8812 20.7894 12.8159 20.7335 12.8209 20.6929C12.9013 20.4642 12.9013 20.2864 12.9465 20.0476C12.9566 20.0069 13.037 19.9815 13.042 19.9409C12.9968 19.763 12.9968 19.4124 13.0219 19.2498C13.037 19.1685 13.2431 19.0516 13.2883 18.9805C13.2933 18.9399 13.2581 18.8382 13.3335 18.701C13.3536 18.6655 13.4039 18.6756 13.4441 18.6451C13.4491 18.6045 13.424 18.5588 13.429 18.5181C13.4491 18.3962 13.6501 18.3149 13.6602 18.2336C13.7406 17.9643 13.8713 17.8525 14.012 17.6289C14.0623 17.5324 14.0824 17.4307 14.1678 17.3393C14.203 17.3139 14.2231 17.3393 14.2281 17.3037C14.2331 17.2681 14.2181 17.1919 14.2231 17.1563C14.3035 17.0649 14.4141 16.9836 14.4292 16.882C14.4844 16.7498 14.5347 16.6533 14.6101 16.5669C14.7558 16.4551 14.9016 16.3484 14.992 16.1858C15.0725 16.0944 15.1629 16.1198 15.2433 16.0283C15.3589 15.9114 15.3891 15.7387 15.4745 15.6167C15.6756 15.3779 15.8917 15.2102 16.1128 15.0425C16.2937 14.9053 16.5249 14.8495 16.7008 14.7478C16.8818 14.6106 16.9923 14.3464 17.1682 14.2448C17.2738 14.1635 17.4045 14.1533 17.515 14.072C17.6256 13.9907 17.7161 13.8332 17.8769 13.7976C18.2387 13.7011 17.9824 13.8027 18.3192 13.6655C18.5302 13.5334 18.4448 13.4978 18.6559 13.3657C19.0077 13.1574 19.1886 13.0253 19.2188 13.0355C19.254 13.01 19.2891 12.9796 19.3042 12.9084C19.3897 12.7814 19.842 12.4664 19.9073 12.446C19.9727 12.4257 20.0531 12.5121 20.1285 12.4257C20.1687 12.3647 20.0883 12.3088 20.1285 12.2479C20.2441 12.131 20.3546 11.9735 20.4652 11.8922C20.5004 11.8668 20.5908 11.9176 20.6562 11.8973C20.6914 11.8718 20.7064 11.8007 20.7416 11.7753C20.7868 11.7143 20.7064 11.6229 20.7466 11.5619C20.7969 11.4653 20.8472 11.3688 20.9125 11.3485C21.018 11.2977 21.1588 11.2214 21.1437 11.1503C21.1688 11.0131 21.2241 10.881 21.3648 10.8048C21.3698 10.7692 21.3799 10.7336 21.3849 10.7032C21.4653 10.6117 21.5407 10.5609 21.6211 10.4694C21.7066 10.3475 21.6714 10.195 21.7217 10.0985C21.8825 9.92065 22.0383 9.7733 22.0785 9.53448C22.0684 9.42269 21.9981 9.26517 22.0483 9.16863C22.0936 9.10765 22.2293 9.067 22.2393 8.99587C22.2644 8.85867 22.1941 8.70115 22.1891 8.5538C22.2092 8.45217 22.3197 8.36579 22.3047 8.25909C22.2896 7.96945 22.3097 7.68491 22.2695 7.39019C22.37 7.37495 22.38 7.30889 22.3901 7.23776C22.365 7.01926 22.2393 6.81093 22.1891 6.58228C22.184 6.43492 22.2996 6.31805 22.2946 6.17578C22.2795 6.06399 22.179 5.93696 22.0634 5.84041C21.9579 5.7083 22.0282 5.51013 21.988 5.3577C21.9579 5.16969 21.8171 5.0325 21.797 4.814C21.787 4.70222 21.6563 4.71238 21.6111 4.59551C21.5759 4.44307 21.5357 4.29064 21.5357 4.11279C21.5156 4.03657 21.4151 4.05182 21.3598 4.001C21.2341 3.79267 21.2794 3.37601 21.008 3.27947C21.0331 3.14227 20.9075 3.11179 20.8622 3C21.0231 3 21.1738 3.06606 21.2643 3.26931C21.2894 3.30996 21.3799 3.33028 21.4151 3.34044C21.4955 3.43191 21.4905 3.64532 21.5759 3.70121C21.6865 3.79775 21.8523 3.76219 21.8976 3.87905C21.9579 4.07214 22.1036 4.17377 22.174 4.33129C22.169 4.36685 22.184 4.44307 22.2092 4.48372C22.3197 4.58027 22.3348 4.69205 22.4152 4.77843C22.6012 4.99693 22.7871 5.2205 22.7017 5.5203C22.6464 5.65241 22.8123 5.61684 22.8625 5.69814C22.9882 5.90647 22.9379 6.18086 23.0987 6.3587C23.0686 6.70931 23.2344 7.03451 23.34 7.34446C23.159 7.62393 23.2596 8.12189 23.4003 8.40136C23.4003 8.40136 23.5008 8.38612 23.5058 8.35563C23.536 8.18287 23.8476 8.12697 23.7973 8.04059C23.737 7.8475 23.6415 7.44609 23.6415 7.26824C23.6616 6.98369 23.6717 6.73979 23.6265 6.44C23.6013 6.39935 23.5762 6.3587 23.5511 6.31805C23.5159 6.16561 23.4757 6.01318 23.5058 5.84041C23.4857 5.7642 23.4304 5.71846 23.4154 5.64225C23.4204 5.60668 23.4355 5.54062 23.4405 5.50505C23.5109 5.48473 23.5963 5.54062 23.6566 5.55586C23.7119 5.6016 23.6616 5.69814 23.6868 5.73879C23.7873 5.90139 23.933 5.97253 23.9682 6.16053C23.9632 6.1961 23.9531 6.26216 23.9431 6.29773C23.9682 6.51622 24.0989 6.68898 24.129 6.87699C24.1441 6.98877 24.0486 7.14629 24.0939 7.26316C24.2346 7.54263 24.2446 7.86783 24.2195 8.18795C24.1944 8.32514 24.3653 8.43693 24.32 8.53347C24.2698 8.63002 24.3351 8.64526 24.2848 8.7418C24.2798 8.77737 24.2094 8.7977 24.2044 8.83327C24.2949 9.03143 24.1592 9.33631 24.124 9.50907C24.119 9.54464 24.2296 9.58021 24.2547 9.45318C24.2698 9.37696 24.4004 9.37696 24.4658 9.35663C24.5412 9.30074 24.5964 9.16863 24.5914 9.02635L24.6216 9.01619ZM25.29 9.70216C25.295 9.52431 25.3754 9.39728 25.3453 9.21436C25.285 9.02127 25.1443 9.21436 25.0437 9.22452C25.099 9.45318 25.0086 9.6107 24.9382 9.80886C24.893 9.86984 24.8628 10.0426 24.9633 10.0274C25.1191 10.0629 25.285 9.91049 25.29 9.69708V9.70216ZM25.0236 10.6422C25.0638 10.5863 25.0437 10.4745 24.9885 10.4288C24.903 10.3729 24.7874 10.4542 24.7422 10.5507C24.6919 10.6473 24.7271 10.7997 24.8628 10.7895C24.893 10.7946 24.9834 10.7032 25.0287 10.6371L25.0236 10.6422Z" fill="#0082C9"/>
<path d="M23.1991 4.77296C23.365 4.9 23.4303 5.11343 23.561 5.28112L23.5459 5.35226C23.3197 5.55044 23.1187 5.22014 23.0533 5.02704C22.9629 4.82886 22.8674 4.6256 22.6965 4.48331C22.7015 4.44774 22.7116 4.41217 22.7166 4.38168C22.6362 4.29021 22.5306 4.16317 22.6362 4.11236C22.6764 4.05138 22.7518 4.17334 22.8422 4.22923C22.9729 4.40201 22.9981 4.62051 23.1941 4.77296H23.1991Z" fill="#0081C8"/>
<path d="M24.1393 3.88893C24.1393 3.9245 24.084 3.98548 24.079 4.01597C23.9734 3.91434 23.8629 3.81271 23.7674 3.64502C23.7372 3.63485 23.6769 3.61961 23.6518 3.57896C23.6216 3.56879 23.6266 3.5383 23.6367 3.50273C23.7372 3.49257 23.8126 3.58404 23.8981 3.64502C23.9282 3.65518 23.9684 3.62977 23.9986 3.63485C24.084 3.69075 24.1293 3.77714 24.1393 3.88893Z" fill="#0081C8"/>
<path d="M10.1267 10.225C10.1568 10.2504 10.2021 10.291 10.2222 10.3215C10.2724 10.3571 10.3227 10.3571 10.378 10.3317C10.4282 10.3317 10.4735 10.4689 10.5288 10.4739C10.6041 10.5095 10.6494 10.6416 10.7248 10.7077C10.775 10.7382 10.8253 10.789 10.8755 10.8195C10.9459 10.9109 10.9911 11.0024 11.0665 11.0684C11.1168 11.1294 11.1922 11.1091 11.2475 11.1091C11.348 11.1447 11.3882 11.2971 11.4636 11.3886C11.4887 11.3886 11.5339 11.48 11.5339 11.5105C11.5842 11.541 11.6294 11.602 11.7048 11.6375C11.7299 11.668 11.7249 11.7239 11.745 11.7595C11.931 12.0644 12.1772 12.2575 12.3381 12.5877C12.3381 12.5877 12.3582 12.6487 12.3582 12.6741C12.5542 12.8621 12.6346 13.1314 12.8055 13.3448C12.8507 13.4363 12.8909 13.5837 12.9361 13.7005C12.9864 13.7615 13.0316 13.7971 13.0819 13.8581C13.1522 13.98 13.2176 14.1274 13.2327 14.2747C13.2327 14.3306 13.1925 14.5034 13.0919 14.4068C12.9713 14.2798 12.9814 14.1121 12.8607 14.0105C12.8607 13.98 12.8306 13.9038 12.8055 13.8784C12.7552 13.8174 12.6698 13.8225 12.6446 13.7361C12.6497 13.6497 12.5542 13.5786 12.5089 13.5176C12.3833 13.3398 12.2074 13.2737 12.0566 13.0908C12.0315 13.0908 12.0013 13.0908 11.9762 13.1162C11.9511 13.1721 11.8656 13.2534 11.941 13.3448C12.0415 13.4058 12.0918 13.5278 12.2174 13.5887C12.2928 13.6497 12.3129 13.8225 12.3582 13.9698C12.4084 14.0308 12.4587 14.0867 12.5341 14.1223C12.6095 14.1833 12.5793 14.2747 12.6497 14.3662C12.6497 14.3967 12.6195 14.4221 12.6195 14.4475C12.6647 14.5389 12.7703 14.5186 12.8406 14.6101C12.8959 14.5593 12.9713 14.5999 13.0165 14.6812C12.9311 14.7625 12.9562 14.8235 12.9211 14.9048C12.8306 15.042 13.0316 15.1741 13.1573 15.2401C13.2377 15.2452 13.2276 15.3875 13.298 15.4536C13.3432 15.545 13.4739 15.5552 13.5443 15.6771C13.5644 15.7381 13.5141 15.7635 13.484 15.8143C13.4789 15.9007 13.5794 15.9363 13.6297 15.9718C13.68 16.0074 13.7001 16.0633 13.7202 16.1243C13.6398 16.1446 13.489 16.0379 13.4086 16.0328C13.3583 16.0125 13.2678 15.8956 13.1673 15.8753C13.1321 15.8651 13.107 15.9515 13.0718 15.9414C13.0266 15.9312 12.9763 15.921 12.9211 15.9109C12.8658 15.9007 12.7351 15.7534 12.6798 15.7483C12.6145 15.7381 12.5341 15.855 12.4738 15.8448C12.2375 15.8042 12.2325 15.7889 12.1571 15.7584C12.0717 15.7229 11.9863 15.6822 11.9109 15.6365C11.8606 15.606 11.8757 15.5399 11.8254 15.5095C11.7802 15.479 11.6746 15.479 11.6294 15.4485C11.4435 15.3316 11.2676 15.0725 11.1067 14.9861C11.0012 14.9302 10.9107 14.8743 10.7951 14.8184C10.7348 14.7828 10.6946 14.7015 10.6242 14.6761C10.4031 14.5999 10.2272 14.4627 9.97591 14.3916C9.50348 14.2544 9.10644 14.5288 8.71945 14.732C8.69935 14.732 8.65914 14.732 8.63904 14.7422C8.54857 14.8184 8.44303 14.8591 8.35759 14.92C8.23697 15.0166 8.07112 15.042 7.94045 15.1182C7.90024 15.1436 7.89521 15.2198 7.85501 15.2452C7.78967 15.2808 7.6791 15.291 7.61879 15.3265C7.56351 15.3621 7.55346 15.4282 7.49817 15.4739C7.3876 15.5653 7.27703 15.6365 7.13128 15.7076C7.04584 15.7534 6.33217 15.8753 6.21658 15.8753C6.03565 15.8753 5.90498 16.0328 5.63358 16.0328C5.21644 16.0328 4.79929 16.0227 4.45753 15.7635C4.38215 15.6975 4.37209 15.5247 4.32184 15.4942C4.17106 15.3926 4.18614 15.1944 4.14593 15.0471C4.09567 15.0166 3.99516 15.0064 4.00018 14.92C4.05547 14.4932 4.26655 14.102 4.52287 13.8072C4.58318 13.6955 4.71888 13.6497 4.72893 13.5074C4.72893 13.5074 4.96012 13.1772 5.10084 13.0451C5.131 12.9892 5.08576 12.8977 5.11592 12.8418C5.32701 12.4251 5.714 12.1406 6.0256 11.7595C6.11104 11.6782 6.17135 11.5664 6.30202 11.5512C6.35228 11.5512 6.40756 11.5613 6.43269 11.5054C6.493 11.3682 6.60357 11.2869 6.68901 11.2361C6.99056 11.0278 7.24185 10.7178 7.58864 10.6569C7.64392 10.6315 7.67408 10.5756 7.72433 10.5502C7.77962 10.4994 7.88014 10.5654 7.93542 10.54C8.19174 10.4231 8.42293 10.1742 8.6893 10.1386C8.74458 10.1132 8.77474 10.0573 8.79986 10.0624C9.03105 10.0827 9.30748 9.87436 9.52861 10.0929C9.72462 10.0522 10.0211 10.0929 10.1468 10.1996L10.1267 10.225ZM11.9109 12.7503C11.9109 12.7199 11.9109 12.6944 11.9109 12.664C11.8103 12.603 11.7651 12.4251 11.6344 12.3896C11.6093 12.3896 11.554 12.415 11.554 12.4455C11.549 12.6182 11.6194 12.7351 11.6948 12.8825C11.7249 12.7707 11.8003 12.7757 11.8506 12.8621C11.8757 12.8367 11.9058 12.7808 11.9058 12.7503H11.9109Z" fill="#00943C"/>
</svg>
