<svg width="18" height="18" viewBox="0 0 18 18" fill="none" xmlns="http://www.w3.org/2000/svg">
<path d="M9.8025 3.50124L9.80252 3.50129C10.0606 4.01761 10.2841 4.42339 10.5675 4.68292C10.901 4.98836 11.2679 5.05555 11.6667 5.05555H16.1111C16.3257 5.05555 16.5 5.22975 16.5 5.44444V13.4444C16.5 15.1318 15.1319 16.5 13.4444 16.5H4.55556C2.86814 16.5 1.5 15.1318 1.5 13.4444V5.44444V3.66666C1.5 2.47 2.46993 1.5 3.66667 1.5H7.22222C7.91864 1.5 8.35436 1.64803 8.7051 1.92748C9.07787 2.22447 9.40716 2.70995 9.8025 3.50124Z" stroke="#99A3FF"/>
<rect x="6" y="10" width="6" height="1" fill="#99A3FF"/>
</svg>
