<svg width="30" height="30" viewBox="0 0 30 30" fill="none" xmlns="http://www.w3.org/2000/svg">
<path fill-rule="evenodd" clip-rule="evenodd" d="M16.4186 24.2835C16.35 24.4165 16.2128 24.5 16.0632 24.5H12.937C12.7874 24.5 12.6502 24.4165 12.5816 24.2835L11.3682 21.934C11.3333 21.8663 11.2797 21.8101 11.2139 21.7718L9.89251 21.0033C9.82625 20.9648 9.75031 20.9461 9.67374 20.9495L7.05025 21.0655C6.9007 21.0721 6.75997 20.9947 6.68553 20.8648L5.11984 18.1329C5.04612 18.0042 5.04959 17.8454 5.12887 17.7201L6.54364 15.4841C6.58413 15.4201 6.60562 15.346 6.60562 15.2702L6.60562 13.7298C6.60562 13.6541 6.58413 13.5799 6.54364 13.5159L5.12887 11.2799C5.04959 11.1546 5.04612 10.9958 5.11984 10.8672L6.68553 8.13524C6.75997 8.00536 6.9007 7.92791 7.05025 7.93452L9.67373 8.05057C9.75031 8.05395 9.82625 8.03527 9.89251 7.99673L11.2139 7.22822C11.2797 7.18994 11.3333 7.13365 11.3682 7.06599L12.5816 4.71646C12.6502 4.58351 12.7874 4.5 12.937 4.5H16.0632C16.2128 4.5 16.35 4.58351 16.4186 4.71646L17.632 7.066C17.6669 7.13366 17.7205 7.18993 17.7863 7.22822L19.1075 7.99672C19.1737 8.03526 19.2497 8.05395 19.3263 8.05057L21.9497 7.93453C22.0993 7.92791 22.24 8.00536 22.3145 8.13524L23.8802 10.8672C23.9539 10.9958 23.9504 11.1546 23.8711 11.2799L22.4564 13.5159C22.4159 13.5799 22.3944 13.6541 22.3944 13.7298L22.3944 15.2702C22.3944 15.346 22.4159 15.4201 22.4564 15.4841L23.8711 17.7201C23.9504 17.8454 23.9539 18.0042 23.8802 18.1329L22.3145 20.8648C22.24 20.9947 22.0993 21.0721 21.9497 21.0655L19.3263 20.9495C19.2497 20.9461 19.1737 20.9648 19.1075 21.0033L17.7863 21.7718C17.7205 21.8101 17.6669 21.8663 17.632 21.934L16.4186 24.2835Z" stroke="black" stroke-width="2" stroke-linejoin="round"/>
<circle cx="14.5" cy="14.5" r="3" stroke="black" stroke-width="2"/>
</svg>
