<svg width="30" height="30" viewBox="0 0 30 30" fill="none" xmlns="http://www.w3.org/2000/svg">
<path d="M13.927 6.83043C14.3694 5.94679 15.6306 5.94679 16.073 6.83043L18.1181 10.9148C18.2941 11.2662 18.631 11.5092 19.02 11.5652L23.5667 12.2204C24.5559 12.3629 24.9476 13.5815 24.2267 14.2737L20.9606 17.4097C20.6726 17.6862 20.541 18.0877 20.6094 18.481L21.383 22.9271C21.5531 23.9051 20.5298 24.655 19.6484 24.1981L15.5523 22.0746C15.206 21.895 14.794 21.895 14.4477 22.0746L10.3516 24.1981C9.47021 24.655 8.44686 23.9051 8.61702 22.9271L9.39056 18.481C9.45898 18.0877 9.32737 17.6862 9.03943 17.4097L5.77333 14.2737C5.05241 13.5815 5.44408 12.3629 6.43331 12.2204L10.98 11.5652C11.369 11.5092 11.7059 11.2662 11.8819 10.9148L13.927 6.83043Z" stroke="black" stroke-width="2" stroke-linecap="round" stroke-linejoin="round"/>
</svg>
