<svg width="360" height="40" viewBox="0 0 360 40" fill="none" xmlns="http://www.w3.org/2000/svg">
<rect width="360" height="40" fill="white"/>
<path d="M31.5 27L24.5 20L31.5 13" stroke="black" stroke-width="2" stroke-linecap="round"/>
<path d="M71.2504 19.8C71.74 19.5018 72.1532 19.0934 72.4571 18.6073C72.7609 18.1212 72.9469 17.5708 73.0004 17C73.0097 16.4839 72.9172 15.971 72.7282 15.4906C72.5392 15.0103 72.2575 14.5718 71.899 14.2004C71.5406 13.8289 71.1124 13.5317 70.6391 13.3258C70.1658 13.1198 69.6565 13.0091 69.1404 13H62.6504V27H69.6504C70.1415 26.9948 70.6269 26.8929 71.0786 26.7001C71.5304 26.5073 71.9397 26.2274 72.2833 25.8764C72.6269 25.5253 72.898 25.1101 73.0811 24.6543C73.2642 24.1985 73.3557 23.7112 73.3504 23.22V23.1C73.3507 22.4071 73.1533 21.7285 72.7813 21.144C72.4093 20.5594 71.8782 20.0931 71.2504 19.8ZM64.6504 15H68.8504C69.2766 14.9868 69.6966 15.1043 70.0541 15.3367C70.4116 15.569 70.6894 15.9052 70.8504 16.3C71.0133 16.8278 70.9606 17.3986 70.7039 17.8877C70.4472 18.3767 70.0073 18.7443 69.4804 18.91C69.2758 18.97 69.0636 19.0003 68.8504 19H64.6504V15ZM69.2504 25H64.6504V21H69.2504C69.6766 20.9868 70.0966 21.1043 70.4541 21.3367C70.8116 21.569 71.0894 21.9052 71.2504 22.3C71.4133 22.8278 71.3606 23.3986 71.1039 23.8877C70.8472 24.3767 70.4073 24.7443 69.8804 24.91C69.6758 24.97 69.4636 25.0003 69.2504 25Z" fill="#999999"/>
<path d="M103.761 17H105.761L103.561 27H101.561L103.761 17ZM105.441 13C105.243 13 105.049 13.0586 104.885 13.1685C104.721 13.2784 104.592 13.4346 104.517 13.6173C104.441 13.8 104.421 14.0011 104.46 14.1951C104.498 14.3891 104.594 14.5673 104.733 14.7071C104.873 14.847 105.051 14.9422 105.245 14.9808C105.439 15.0194 105.641 14.9996 105.823 14.9239C106.006 14.8482 106.162 14.72 106.272 14.5556C106.382 14.3911 106.441 14.1978 106.441 14C106.441 13.7348 106.335 13.4804 106.148 13.2929C105.96 13.1054 105.706 13 105.441 13Z" fill="#999999"/>
<path d="M147 28V30H133V28H147ZM144 21.215C143.967 21.875 143.771 22.5165 143.43 23.0823C143.088 23.6481 142.612 24.1205 142.044 24.4572C141.475 24.794 140.832 24.9847 140.172 25.0122C139.511 25.0397 138.855 24.9033 138.26 24.615C137.575 24.3185 136.993 23.8241 136.591 23.1952C136.188 22.5663 135.982 21.8315 136 21.085V13.005H134V21.215C134.034 22.1564 134.289 23.0766 134.744 23.9012C135.2 24.7257 135.843 25.4314 136.622 25.9611C137.401 26.4908 138.294 26.8296 139.228 26.9502C140.163 27.0707 141.112 26.9696 142 26.655C143.181 26.2613 144.206 25.5012 144.925 24.485C145.645 23.4689 146.021 22.2498 146 21.005V13.005H144V21.215ZM144 13H146H144ZM136 13H134H136Z" fill="#999999"/>
<path d="M177.551 27H179.551L174.551 13H172.551L167.551 27H169.551L170.951 23H176.051L177.551 27ZM171.651 21L173.551 15.8L175.451 21H171.651ZM184.451 25.5C184.451 25.7967 184.363 26.0867 184.198 26.3334C184.033 26.58 183.799 26.7723 183.525 26.8858C183.251 26.9993 182.949 27.0291 182.658 26.9712C182.367 26.9133 182.1 26.7704 181.89 26.5607C181.68 26.3509 181.537 26.0836 181.48 25.7926C181.422 25.5017 181.451 25.2001 181.565 24.926C181.678 24.6519 181.871 24.4176 182.117 24.2528C182.364 24.088 182.654 24 182.951 24C183.349 24 183.73 24.158 184.011 24.4393C184.293 24.7206 184.451 25.1022 184.451 25.5ZM184.451 21.5C184.451 21.7967 184.363 22.0867 184.198 22.3334C184.033 22.58 183.799 22.7723 183.525 22.8858C183.251 22.9994 182.949 23.0291 182.658 22.9712C182.367 22.9133 182.1 22.7704 181.89 22.5607C181.68 22.3509 181.537 22.0836 181.48 21.7926C181.422 21.5017 181.451 21.2001 181.565 20.926C181.678 20.6519 181.871 20.4176 182.117 20.2528C182.364 20.088 182.654 20 182.951 20C183.349 20 183.73 20.158 184.011 20.4393C184.293 20.7206 184.451 21.1022 184.451 21.5ZM184.451 17.5C184.451 17.7967 184.363 18.0867 184.198 18.3334C184.033 18.58 183.799 18.7723 183.525 18.8858C183.251 18.9994 182.949 19.0291 182.658 18.9712C182.367 18.9133 182.1 18.7704 181.89 18.5607C181.68 18.3509 181.537 18.0836 181.48 17.7926C181.422 17.5017 181.451 17.2001 181.565 16.926C181.678 16.6519 181.871 16.4176 182.117 16.2528C182.364 16.088 182.654 16 182.951 16C183.349 16 183.73 16.158 184.011 16.4393C184.293 16.7206 184.451 17.1022 184.451 17.5Z" fill="#999999"/>
<path d="M258.4 17.4C256.7 17.7 255.2 18.3 253.8 19.4L251 16.5V23.5H258L255.3 20.8C259 18.2 264.1 19 266.8 22.7C267 23 267.2 23.2 267.3 23.5L269.1 22.6C266.9 18.8 262.7 16.7 258.4 17.4Z" fill="#999999"/>
<path d="M297.6 17.4C299.3 17.7 300.8 18.3 302.2 19.4L305 16.5V23.5H298L300.7 20.8C297 18.1 291.9 19 289.3 22.7C289.1 23 288.9 23.2 288.8 23.5L287 22.6C289.1 18.8 293.3 16.7 297.6 17.4Z" fill="#999999"/>
<path d="M333.5 25C333.5 25.8 332.8 26.5 332 26.5C331.2 26.5 330.5 25.8 330.5 25C330.5 24.2 331.2 23.5 332 23.5C332.8 23.5 333.5 24.2 333.5 25ZM333.5 20C333.5 20.8 332.8 21.5 332 21.5C331.2 21.5 330.5 20.8 330.5 20C330.5 19.2 331.2 18.5 332 18.5C332.8 18.5 333.5 19.2 333.5 20ZM333.5 15C333.5 15.8 332.8 16.5 332 16.5C331.2 16.5 330.5 15.8 330.5 15C330.5 14.2 331.2 13.5 332 13.5C332.8 13.5 333.5 14.2 333.5 15Z" fill="#999999"/>
</svg>
