<svg width="77" height="88" viewBox="0 0 77 88" fill="none" xmlns="http://www.w3.org/2000/svg">
<g id="Home/Page move">
<g id="bg02">
<path d="M0 44.2542C0 55.086 8.78091 63.8669 19.6127 63.8669H24.8292H53.375C56.2708 63.8669 59.1499 64.3059 61.9142 65.1689L63.787 65.7535C66.1536 66.4924 68.351 67.6915 70.2528 69.282C74.529 72.8582 77 78.1459 77 83.7204V88V0V3.08955C77 8.53343 74.8987 13.7672 71.1342 17.6997C68.6663 20.2778 65.5855 22.1887 62.1793 23.2542L61.3285 23.5203C58.9525 24.2635 56.4774 24.6415 53.9879 24.6415H24.8292H19.6127C8.78091 24.6415 0 33.4224 0 44.2542Z" fill="url(#paint0_linear_3370_6060)"/>
<path d="M0 44.2542C0 55.086 8.78091 63.8669 19.6127 63.8669H24.8292H53.375C56.2708 63.8669 59.1499 64.3059 61.9142 65.1689L63.787 65.7535C66.1536 66.4924 68.351 67.6915 70.2528 69.282C74.529 72.8582 77 78.1459 77 83.7204V88V0V3.08955C77 8.53343 74.8987 13.7672 71.1342 17.6997C68.6663 20.2778 65.5855 22.1887 62.1793 23.2542L61.3285 23.5203C58.9525 24.2635 56.4774 24.6415 53.9879 24.6415H24.8292H19.6127C8.78091 24.6415 0 33.4224 0 44.2542Z" fill="black" fill-opacity="0.1"/>
</g>
<g id="Group 1707479809">
<g id="arrow-right">
<path id="Vector" d="M56 39L61 44L56 49" stroke="white" stroke-width="1.4" stroke-miterlimit="10" stroke-linecap="round" stroke-linejoin="round"/>
<path id="Vector_2" d="M50.5 44.0781L60 44.0781" stroke="white" stroke-width="1.4" stroke-miterlimit="10" stroke-linecap="round" stroke-linejoin="round"/>
</g>
<path id="FDS" d="M18.7744 49V39.8086H24.8301V41.3828H20.6787V43.6172H24.4365V45.1914H20.6787V49H18.7744ZM29.5242 49H26.2869V39.8086H29.5623C32.3299 39.8086 34.0247 41.5288 34.0184 44.3916C34.0247 47.2671 32.3299 49 29.5242 49ZM28.1912 47.3623H29.448C31.2 47.3623 32.1141 46.4546 32.1141 44.3916C32.1141 42.3477 31.2 41.4463 29.4607 41.4463H28.1912V47.3623ZM40.5914 42.4365C40.5152 41.7065 39.9376 41.2812 39.0045 41.2812C38.0396 41.2812 37.5001 41.7256 37.4937 42.335C37.4874 43.0015 38.1729 43.2998 38.9664 43.4775L39.7916 43.6807C41.3658 44.0425 42.5401 44.8423 42.5465 46.3721C42.5401 48.0542 41.2325 49.1333 38.9918 49.127C36.7701 49.1333 35.3546 48.105 35.2975 46.1309H37.151C37.2145 47.0576 37.9508 47.5273 38.9664 47.5273C39.9693 47.5273 40.6168 47.0576 40.6168 46.3721C40.6168 45.7437 40.0455 45.4517 39.0426 45.2041L38.0396 44.9629C36.4908 44.582 35.5387 43.8076 35.5387 42.4619C35.5323 40.7925 37.005 39.6816 39.0172 39.6816C41.0548 39.6816 42.3941 40.8115 42.4195 42.4365H40.5914Z" fill="white"/>
</g>
</g>
<defs>
<linearGradient id="paint0_linear_3370_6060" x1="17.3034" y1="19.5" x2="42.3585" y2="81.9384" gradientUnits="userSpaceOnUse">
<stop stop-color="#B0EBCB"/>
<stop offset="0.756332" stop-color="#99A3FF"/>
</linearGradient>
</defs>
</svg>
