<svg width="89" height="88" viewBox="0 0 89 88" fill="none" xmlns="http://www.w3.org/2000/svg">
<g id="Tab/Home/Type-02">
<path id="bg02" d="M89 44.2542C89 55.086 80.2191 63.8669 69.3873 63.8669H52.1708H23.625C20.7292 63.8669 17.8501 64.3059 15.0858 65.1689L13.213 65.7535C10.8464 66.4924 8.64903 67.6915 6.74718 69.282C2.47099 72.8582 0 78.1459 0 83.7204V88V0V3.08955C0 8.53343 2.10129 13.7672 5.86577 17.6997C8.33372 20.2778 11.4145 22.1887 14.8207 23.2542L15.6715 23.5203C18.0475 24.2635 20.5226 24.6415 23.0121 24.6415H52.1708H69.3873C80.2191 24.6415 89 33.4224 89 44.2542Z" fill="url(#paint0_linear_4484_16108)"/>
<g id="Frame 1707479931">
<g id="arrow-right">
<path id="Vector" d="M17 39L12 44L17 49" stroke="white" stroke-width="1.4" stroke-miterlimit="10" stroke-linecap="round" stroke-linejoin="round"/>
<path id="Vector_2" d="M22.5 44.0781L13 44.0781" stroke="white" stroke-width="1.4" stroke-miterlimit="10" stroke-linecap="round" stroke-linejoin="round"/>
</g>
<path id="&#236;&#151;&#133;&#235;&#172;&#180;&#236;&#132;&#160;&#237;&#131;&#157;" d="M31.0674 39.1104C32.54 39.0977 33.7144 39.9419 34.0317 41.1797H35.9678V38.6152H37.5801V44.8232H35.9678V42.4746H34.0381C33.7397 43.7441 32.5527 44.6074 31.0674 44.6074C29.29 44.6074 27.9824 43.4521 27.9951 41.8398C27.9824 40.2593 29.29 39.0977 31.0674 39.1104ZM29.5312 41.8398C29.5249 42.7031 30.1597 43.249 31.0674 43.249C31.9434 43.249 32.5718 42.7031 32.5781 41.8398C32.5718 40.9766 31.9434 40.4497 31.0674 40.4561C30.1597 40.4497 29.5249 40.9766 29.5312 41.8398ZM29.874 50.041V45.3311H31.4736V46.4482H35.9678V45.3311H37.5801V50.041H29.874ZM31.4736 48.7334H35.9678V47.6924H31.4736V48.7334ZM49.8406 45.0771V46.3721H45.3211V50.1553H43.7215V46.3721H39.2654V45.0771H49.8406ZM40.5096 43.833V39.1738H48.5711V43.833H40.5096ZM42.1092 42.5635H46.9588V40.4561H42.1092V42.5635ZM55.0426 40.5957C55.0426 42.0874 55.8424 43.5728 57.6832 44.1885L56.8072 45.458C55.5821 45.0073 54.7379 44.1567 54.2491 43.084C53.754 44.2964 52.8526 45.2422 51.5133 45.7246L50.6373 44.4551C52.567 43.8203 53.3985 42.2397 53.4049 40.583V39.3262H55.0426V40.5957ZM52.7574 49.9648V46.2578H54.3951V48.6699H60.692V49.9648H52.7574ZM56.6676 42.3857V41.0781H58.8385V38.6279H60.4508V47.1592H58.8385V42.3857H56.6676ZM67.1254 39.3896V40.6846H64.1039V41.6367H67.0111V42.8682H64.1039V43.8901C65.3861 43.8774 66.3319 43.8267 67.4047 43.6426L67.5697 44.9375C66.2177 45.1787 65.0878 45.2231 63.3422 45.2168H62.5551V39.3896H67.1254ZM64.0912 47.4512V46.1562H72.0766V50.168H70.4643V47.4512H64.0912ZM68.0268 45.585V38.8311H69.5375V41.4463H70.5404V38.6279H72.0766V45.6738H70.5404V42.7412H69.5375V45.585H68.0268Z" fill="white"/>
</g>
</g>
<defs>
<linearGradient id="paint0_linear_4484_16108" x1="7.84194e-06" y1="-2.07444" x2="20.1177" y2="64.7402" gradientUnits="userSpaceOnUse">
<stop stop-color="#B0EBCC"/>
<stop offset="0.756332" stop-color="#99A3FF"/>
</linearGradient>
</defs>
</svg>
