<svg width="18" height="18" viewBox="0 0 18 18" fill="none" xmlns="http://www.w3.org/2000/svg">
<path d="M3.66667 1C2.19378 1 1 2.19386 1 3.66666V5.44444V13.4444C1 15.408 2.592 17 4.55556 17H13.4444C15.408 17 17 15.408 17 13.4444V5.44444C17 4.9535 16.6018 4.55555 16.1111 4.55555C16.1111 4.55555 13.5307 4.55555 11.6667 4.55555C10.9956 4.55555 10.7796 4.33786 10.2498 3.27777C9.44712 1.6712 8.77333 1 7.22222 1H3.66667ZM3.66667 2.77777H7.22222C7.89333 2.77777 8.10933 2.99546 8.63911 4.05555C8.75466 4.28764 8.79912 4.3632 8.9129 4.55706C5.84978 4.55706 3.65333 4.55555 2.77778 4.55555V3.66666C2.77778 3.17573 3.176 2.77777 3.66667 2.77777Z" fill="#99A3FF"/>
<rect x="6" y="10" width="6" height="1" fill="white"/>
<rect x="9.5" y="7.5" width="6" height="1" transform="rotate(90 9.5 7.5)" fill="white"/>
</svg>
