<svg width="15" height="14" viewBox="0 0 15 14" fill="none" xmlns="http://www.w3.org/2000/svg">
<g id="IC/14/Info">
<circle id="Ellipse 19" cx="7.75" cy="7" r="7" fill="#3C4B63"/>
<path id="!" d="M6.85909 10.103C6.85909 10.5984 7.26068 11 7.75606 11C8.25144 11 8.65303 10.5984 8.65303 10.103V6.88665C8.65303 6.39127 8.25144 5.98969 7.75606 5.98969C7.26068 5.98969 6.85909 6.39127 6.85909 6.88665V10.103ZM7.75606 3C7.47323 3 7.23485 3.09795 7.04091 3.29386C6.84697 3.49828 6.75 3.74529 6.75 4.03489C6.75 4.32449 6.84697 4.56724 7.04091 4.76315C7.23485 4.96757 7.47323 5.06978 7.75606 5.06978C8.03081 5.06978 8.26515 4.96757 8.45909 4.76315C8.65303 4.56724 8.75 4.32449 8.75 4.03489C8.75 3.74529 8.65303 3.49828 8.45909 3.29386C8.26515 3.09795 8.03081 3 7.75606 3Z" fill="white"/>
</g>
</svg>
