<svg width="30" height="30" viewBox="0 0 30 30" fill="none" xmlns="http://www.w3.org/2000/svg">
<path d="M21 11.002C21 9.41065 20.3679 7.88453 19.2426 6.75931C18.1174 5.63409 16.5913 5.00195 15 5.00195C13.4087 5.00195 11.8826 5.63409 10.7574 6.75931C9.63214 7.88453 9 9.41065 9 11.002C9 18.002 6 20.002 6 20.002H24C24 20.002 21 18.002 21 11.002Z" stroke="black" stroke-width="2" stroke-linecap="round" stroke-linejoin="round"/>
<path d="M16.73 24.002C16.5542 24.305 16.3019 24.5566 15.9982 24.7315C15.6946 24.9064 15.3504 24.9984 15 24.9984C14.6496 24.9984 14.3054 24.9064 14.0018 24.7315C13.6982 24.5566 13.4458 24.305 13.27 24.002" stroke="black" stroke-width="2" stroke-linecap="round" stroke-linejoin="round"/>
</svg>
