<svg width="16" height="16" viewBox="0 0 18 18" fill="none" xmlns="http://www.w3.org/2000/svg">
    <path fill-rule="evenodd" clip-rule="evenodd"
        d="M3.25 8.25C3.25 5.48858 5.48858 3.25 8.25 3.25C11.0114 3.25 13.25 5.48858 13.25 8.25C13.25 9.59016 12.7227 10.8072 11.8644 11.7049C11.8353 11.7282 11.8071 11.7532 11.7802 11.7802C11.7532 11.8071 11.7282 11.8353 11.7049 11.8644C10.8072 12.7227 9.59016 13.25 8.25 13.25C5.48858 13.25 3.25 11.0114 3.25 8.25ZM12.4422 13.8564C11.2736 14.7316 9.82234 15.25 8.25 15.25C4.38401 15.25 1.25 12.116 1.25 8.25C1.25 4.38401 4.38401 1.25 8.25 1.25C12.116 1.25 15.25 4.38401 15.25 8.25C15.25 9.82234 14.7316 11.2736 13.8564 12.4422L16.4569 15.0427C16.8474 15.4332 16.8474 16.0664 16.4569 16.4569C16.0664 16.8474 15.4332 16.8474 15.0427 16.4569L12.4422 13.8564Z"
        fill="#3284FF" />
</svg>