<svg width="18" height="18" viewBox="0 0 18 18" fill="none" xmlns="http://www.w3.org/2000/svg">
<path d="M8.10583 1.78578C8.47454 1.04941 9.52546 1.04941 9.89417 1.78577L11.5469 5.08653C11.6936 5.37939 11.9743 5.58188 12.2985 5.62858L15.9722 6.15794C16.7966 6.27672 17.123 7.2922 16.5222 7.86904L13.8838 10.4024C13.6439 10.6328 13.5342 10.9674 13.5912 11.2951L14.2162 14.8872C14.358 15.7022 13.5052 16.3271 12.7707 15.9463L9.46025 14.2301C9.17166 14.0805 8.82834 14.0805 8.53975 14.2301L5.2293 15.9463C4.49484 16.3271 3.64205 15.7022 3.78385 14.8872L4.4088 11.2951C4.46581 10.9674 4.35614 10.6328 4.11619 10.4024L1.47778 7.86904C0.877005 7.2922 1.2034 6.27672 2.02776 6.15794L5.70153 5.62858C6.02569 5.58188 6.30644 5.37939 6.45308 5.08653L8.10583 1.78578Z" fill="#3284FF"/>
</svg>
