<svg width="24" height="24" viewBox="0 0 24 24" fill="none" xmlns="http://www.w3.org/2000/svg">
<g id="icon_main_02">
<path id="Union" fill-rule="evenodd" clip-rule="evenodd" d="M5.19231 11.75C5.19231 8.12829 8.12829 5.19231 11.75 5.19231C15.3717 5.19231 18.3077 8.12829 18.3077 11.75C18.3077 12.5175 18.1761 13.253 17.9347 13.9359C17.825 14.2464 17.9877 14.587 18.2981 14.6967C18.6085 14.8064 18.9491 14.6437 19.0589 14.3333C19.3447 13.5245 19.5 12.6547 19.5 11.75C19.5 7.46979 16.0302 4 11.75 4C7.46979 4 4 7.46979 4 11.75C4 16.0302 7.46979 19.5 11.75 19.5C12.6025 19.5 13.424 19.3621 14.1927 19.107C14.5051 19.0033 14.6744 18.6659 14.5707 18.3535C14.467 18.041 14.1296 17.8717 13.8171 17.9754C13.168 18.1908 12.4732 18.3077 11.75 18.3077C8.12829 18.3077 5.19231 15.3717 5.19231 11.75ZM13.8676 15.0133H12.984C12.7539 15.0133 12.5606 14.8728 12.533 14.6854L12.1461 12.5686H11.9809L11.5941 14.6854C11.5572 14.8728 11.3639 15.0133 11.143 15.0133H10.2225C10.1181 15.0123 10.0171 14.9818 9.93543 14.9267C9.85374 14.8715 9.79606 14.7949 9.7715 14.7088L9.18923 12.5686H8.30633C8.07359 12.5686 7.89072 12.3534 7.89072 12.0796C7.89072 11.8058 8.07359 11.5907 8.30633 11.5907H8.92318L8.39078 9.63375C8.33555 9.42294 8.49203 9.21213 8.73136 9.16528C8.97989 9.11844 9.22842 9.25117 9.28365 9.45417L9.8649 11.5907H11.213L11.5941 9.47759C11.6096 9.38552 11.6638 9.3013 11.7466 9.24037C11.8295 9.17944 11.9354 9.1459 12.0451 9.1459C12.1547 9.1459 12.2607 9.17944 12.3436 9.24037C12.4264 9.3013 12.4806 9.38552 12.4961 9.47759L12.8772 11.5907H14.2253L14.8065 9.45417C14.8195 9.404 14.8442 9.35655 14.8792 9.31465C14.9143 9.27275 14.9589 9.23727 15.0104 9.21031C15.0619 9.18335 15.1194 9.16547 15.1792 9.15773C15.2391 9.15 15.3002 9.15257 15.3588 9.16528C15.6074 9.21213 15.7638 9.42294 15.6994 9.63375L15.167 11.5907H15.7873C16.02 11.5907 16.2029 11.8058 16.2029 12.0796C16.2029 12.3534 16.02 12.5686 15.7873 12.5686H14.901L14.3187 14.7088C14.2727 14.8884 14.0886 15.0133 13.8676 15.0133ZM13.3522 14.2247L13.0535 12.5686H13.9592L13.5087 14.2247H13.3522ZM10.1309 12.5686H11.0367L10.738 14.2247H10.5815L10.1309 12.5686ZM16.4327 19.0401C16.2327 18.8686 16.2095 18.5676 16.3809 18.3676L17.2143 17.3953L14.2281 17.3953C13.9647 17.3953 13.7512 17.1818 13.7512 16.9184C13.7512 16.655 13.9647 16.4414 14.2281 16.4414L17.2154 16.4414L16.3809 15.4679C16.2095 15.2679 16.2327 14.9668 16.4327 14.7954C16.6326 14.624 16.9337 14.6471 17.1051 14.8471L18.6139 16.6074C18.767 16.786 18.767 17.0495 18.6139 17.2281L17.1051 18.9883C16.9337 19.1883 16.6326 19.2115 16.4327 19.0401Z" fill="#1A2C49"/>
</g>
</svg>
