<svg width="24" height="24" viewBox="0 0 24 24" fill="none" xmlns="http://www.w3.org/2000/svg">
<g id="icon_main_07">
<g id="Group 1707479831">
<path id="Vector" d="M2 13.4149L3.76934 11.2954C4.09043 10.9332 4.34434 10.6699 4.66543 10.3397V10.3179H2.133V9H6.79079V9.99935L5.10206 12.0315C4.79172 12.3834 4.50422 12.7238 4.18313 13.0205V13.0424H6.88349V14.3718H2V13.4162V13.4149Z" fill="#1A2C49"/>
<path id="Vector_2" d="M8.83994 12.2019C8.93449 12.8768 9.49197 13.181 10.2373 13.181C10.6843 13.181 11.0576 13.0443 11.4211 12.8546L12.0092 13.8029C11.1902 14.2659 10.7445 14.3718 10.0507 14.3718C8.30702 14.3718 7.37256 13.176 7.37256 11.75C7.37256 10.3239 8.14247 9 9.96718 9C11.4444 9 12.256 10.1749 12.256 11.5702C12.256 11.8436 12.2241 12.0862 12.2032 12.2019H8.83994ZM10.8476 11.1071C10.8476 10.718 10.5738 10.1194 9.83825 10.1194C9.16657 10.1194 8.87064 10.6749 8.82889 11.1071H10.8476Z" fill="#1A2C49"/>
<path id="Vector_3" d="M16.3812 9.01028C15.9238 9.01028 15.3621 9.04881 15.0159 9.51894V9H13.2332V14.3718H15.0187V11.7797C15.0187 11.6474 15.031 11.5164 15.0544 11.4059C15.1725 10.8895 15.6189 10.5607 16.2754 10.5607C16.4746 10.5607 17.1132 10.5607 17.6283 10.5607V9.03211C16.627 9.01028 16.5446 9.01028 16.3798 9.01028H16.3812Z" fill="#1A2C49"/>
<path id="Vector_4" d="M20.5635 11.5896C20.5635 11.7136 20.6763 11.7487 20.7891 11.7487C21.0313 11.7487 21.0845 11.5608 21.0845 11.3115C21.0135 11.3553 20.8817 11.3641 20.7714 11.3941C20.6585 11.4205 20.5622 11.4681 20.5622 11.5883L20.5635 11.5896Z" fill="#1A2C49"/>
<path id="Vector_5" d="M19.2868 10.4668H18.9394V10.9879H19.2868C19.4579 10.9879 19.5809 10.9253 19.5809 10.7336C19.5809 10.542 19.4541 10.4668 19.2868 10.4668Z" fill="#1A2C49"/>
<path id="Vector_6" d="M22.5788 12.1395C22.4674 12.4473 22.3032 12.5058 21.992 12.5058H21.8003L21.7761 12.1119H21.9358C22.0414 12.1119 22.1195 12.0522 22.1195 11.9558C22.1195 11.88 22.0299 11.6641 22.0035 11.5883L21.6418 10.6122H22.1287L22.3939 11.4723H22.3997L22.6649 10.6122H22.7752C22.3595 9.66488 21.4133 9 20.3143 9C18.833 9 17.6284 10.2046 17.6284 11.6859C17.6284 13.1673 18.833 14.3718 20.3143 14.3718C21.7957 14.3718 23.0003 13.1673 23.0003 11.6859C23.0003 11.4987 22.9807 11.3162 22.944 11.1393L22.5811 12.1384L22.5788 12.1395ZM19.3314 11.3724H18.9421V12.0155H18.4609V10.1035H19.3314C19.6862 10.1035 19.9974 10.2586 19.9974 10.7156C19.9974 11.1726 19.7505 11.3736 19.3314 11.3736V11.3724ZM21.0849 12.0155C21.0688 11.9719 21.063 11.9294 21.0573 11.8834C20.939 12.0074 20.7633 12.0568 20.5957 12.0568C20.3281 12.0568 20.1168 11.9213 20.1168 11.6331C20.1168 11.1761 20.614 11.2117 20.9333 11.1462C21.0114 11.1301 21.055 11.1026 21.055 11.0164C21.055 10.9108 20.9275 10.8706 20.8334 10.8706C20.7059 10.8706 20.6255 10.9269 20.6037 11.0463H20.1742C20.1823 10.8626 20.2684 10.7431 20.3936 10.6708C20.5176 10.6008 20.6807 10.5732 20.8391 10.5732C21.171 10.5732 21.4937 10.6467 21.4937 11.0429V11.6561C21.4937 11.7755 21.4937 11.9052 21.5476 12.0155H21.086H21.0849Z" fill="#1A2C49"/>
</g>
</g>
</svg>
