<svg width="24" height="24" viewBox="0 0 24 24" fill="none" xmlns="http://www.w3.org/2000/svg">
<g id="icon_main_04">
<g id="Group 1707479823">
<path id="Rectangle 2118 (Stroke)" fill-rule="evenodd" clip-rule="evenodd" d="M12.1353 6.03887C12.0332 6.00108 11.9206 6.00266 11.8196 6.04329L6.28643 8.26857C6.1204 8.33534 6.01163 8.49633 6.01163 8.67528V9.21476C6.01163 9.45687 6.20789 9.65313 6.45 9.65313H18.05C18.2921 9.65313 18.4884 9.45687 18.4884 9.21476V8.69472C18.4884 8.51128 18.3742 8.34724 18.2021 8.28359L12.1353 6.03887ZM11.4421 5.10472C11.7763 4.97033 12.1485 4.96511 12.4863 5.0901L18.5532 7.33482C19.1222 7.54537 19.5 8.08796 19.5 8.69472V9.21476C19.5 10.0156 18.8508 10.6648 18.05 10.6648H6.45C5.64919 10.6648 5 10.0156 5 9.21476V8.67528C5 8.08336 5.35979 7.55086 5.90897 7.33L11.4421 5.10472Z" fill="#1A2C49"/>
<path id="Vector 28 (Stroke)" fill-rule="evenodd" clip-rule="evenodd" d="M6.31836 14.2057V10.1592H7.32999V14.2057H6.31836Z" fill="#1A2C49"/>
<path id="Vector 29 (Stroke)" fill-rule="evenodd" clip-rule="evenodd" d="M9.83325 14.2057V10.1592H10.8449V14.2057H9.83325Z" fill="#1A2C49"/>
<path id="Vector 30 (Stroke)" fill-rule="evenodd" clip-rule="evenodd" d="M13.3486 14.2057V10.1592H14.3603V14.2057H13.3486Z" fill="#1A2C49"/>
<path id="Vector 31 (Stroke)" fill-rule="evenodd" clip-rule="evenodd" d="M16.8635 14.2057V10.1592H17.8752V14.2057H16.8635Z" fill="#1A2C49"/>
<path id="Rectangle 2119 (Stroke)" fill-rule="evenodd" clip-rule="evenodd" d="M6.38057 16.2296C6.28488 16.2296 6.21962 16.1327 6.25557 16.044L6.4882 15.4702C6.52079 15.3898 6.56363 15.3157 6.61487 15.2492C6.62301 15.2386 6.63137 15.2282 6.63993 15.218C6.81624 15.0079 7.07925 14.8808 7.36322 14.8808H17.073C17.3559 14.8808 17.6194 15.0072 17.7963 15.218C17.808 15.2319 17.8193 15.2462 17.8303 15.2609C17.8651 15.3077 17.8959 15.3582 17.9221 15.4119L18.2256 16.0357C18.2691 16.1253 18.2039 16.2296 18.1043 16.2296H6.38057ZM7.36322 13.8691H17.073C17.8215 13.8691 18.5043 14.2963 18.8318 14.9694L19.1352 15.5932C19.5057 16.3547 18.9511 17.2412 18.1043 17.2412H6.38057C5.56719 17.2412 5.01246 16.4178 5.31806 15.664L5.55069 15.0901C5.84991 14.3521 6.56679 13.8691 7.36322 13.8691Z" fill="#1A2C49"/>
</g>
</g>
</svg>
