<svg width="24" height="24" viewBox="0 0 24 24" fill="none" xmlns="http://www.w3.org/2000/svg">
<g id="icon_main_03">
<g id="Group 1707479822">
<path id="Vector (Stroke)" fill-rule="evenodd" clip-rule="evenodd" d="M16.2584 6.77498L16.2576 6.774C16.1049 6.58416 15.8999 6.43853 15.3463 6.34607C14.7249 6.24229 13.8771 6.23827 12.5413 6.23827H10.4846C9.14876 6.23827 8.30099 6.24229 7.67958 6.34607C7.126 6.43853 6.92099 6.58416 6.76824 6.774L6.76759 6.7748C6.58362 7.00306 6.42162 7.37542 6.33151 8.20743C6.23999 9.05238 6.23827 10.177 6.23827 11.8105C6.23827 13.444 6.23999 14.5686 6.33151 15.4136C6.42162 16.2456 6.58362 16.6179 6.76759 16.8462L6.76824 16.847C6.92099 17.0368 7.126 17.1825 7.67958 17.2749C8.30099 17.3787 9.14876 17.3827 10.4846 17.3827H12.5413C13.8771 17.3827 14.7249 17.3787 15.3463 17.2749C15.8999 17.1825 16.1049 17.0368 16.2576 16.847L16.2584 16.846C16.5271 16.5128 16.7111 15.9297 16.7643 14.3234L18.0019 14.3644C17.9491 15.9581 17.777 16.9354 17.2224 17.6233C16.4196 18.621 15.1266 18.621 12.5413 18.621H10.4846C7.89928 18.621 6.60629 18.621 5.80349 17.6233C5 16.6264 5 15.0208 5 11.8105C5 8.6002 5 6.99462 5.80349 5.99774C6.60629 5 7.89928 5 10.4846 5H12.5413C15.1266 5 16.4196 5 17.2224 5.99774C17.777 6.6856 17.9484 7.66291 18.0019 9.25656L16.7643 9.29809C16.7104 7.69072 16.527 7.10808 16.2584 6.77498Z" fill="#1A2C49"/>
<path id="Vector (Stroke)_2" fill-rule="evenodd" clip-rule="evenodd" d="M8.66772 9.64355C9.00966 9.64355 9.28686 9.92075 9.28686 10.2627V13.1909C9.28686 13.5328 9.00966 13.81 8.66772 13.81C8.32578 13.81 8.04858 13.5328 8.04858 13.1909V10.2627C8.04858 9.92075 8.32578 9.64355 8.66772 9.64355Z" fill="#1A2C49"/>
<g id="Group 1707479821">
<path id="Vector (Stroke)_3" fill-rule="evenodd" clip-rule="evenodd" d="M17.4582 14.621V14.621C17.3983 14.6245 17.3358 14.6244 17.2993 14.6243C17.2953 14.6243 17.2916 14.6243 17.2883 14.6243H15.697C13.9863 14.6243 12.4841 13.2934 12.4841 11.5138C12.4841 9.73431 13.9857 8.40335 15.6976 8.40335H17.2883C17.2915 8.40335 17.2952 8.40334 17.2991 8.40334C17.3351 8.40328 17.3997 8.40318 17.4604 8.40682L17.4632 8.407L17.4632 8.407C18.3627 8.46311 19.1667 9.15764 19.2357 10.1382L19.2361 10.1438L19.2365 10.1495C19.2402 10.2102 19.2401 10.2742 19.24 10.3076C19.24 10.3113 19.24 10.3146 19.24 10.3175V12.7102C19.24 12.7131 19.24 12.7164 19.24 12.72C19.2401 12.7534 19.2402 12.8175 19.2365 12.8782L19.2362 12.8826L19.2359 12.8871C19.1685 13.8715 18.3606 14.5647 17.4632 14.6207L17.4582 14.621ZM17.3861 13.3848C17.3647 13.386 17.3397 13.386 17.2883 13.386H15.697C14.607 13.386 13.7224 12.5479 13.7224 11.5138C13.7224 10.4797 14.6064 9.64162 15.6976 9.64162H17.2883C17.3397 9.64162 17.3653 9.64162 17.3861 9.64287C17.7163 9.66346 17.9785 9.91247 18.0005 10.2251C18.0017 10.2451 18.0017 10.2694 18.0017 10.3175V12.7102C18.0017 12.7582 18.0017 12.7826 18.0005 12.8025C17.9791 13.1152 17.7163 13.3642 17.3861 13.3848Z" fill="#1A2C49"/>
<path id="Vector (Stroke)_4" fill-rule="evenodd" clip-rule="evenodd" d="M15.7542 10.6279C16.0961 10.6279 16.3733 10.9051 16.3733 11.2471L16.3733 11.7552C16.3733 12.0972 16.0961 12.3744 15.7542 12.3744C15.4122 12.3744 15.135 12.0972 15.135 11.7552L15.135 11.2471C15.135 10.9051 15.4122 10.6279 15.7542 10.6279Z" fill="#1A2C49"/>
</g>
</g>
</g>
</svg>
