<svg width="24" height="24" viewBox="0 0 24 24" fill="none" xmlns="http://www.w3.org/2000/svg">
<path fill-rule="evenodd" clip-rule="evenodd" d="M5.85198 9.4249C6.09164 7.72063 7.54986 6.45312 9.2709 6.45312H14.0291C15.7501 6.45312 17.2084 7.72063 17.448 9.4249L18.2657 15.2397C18.5579 17.3173 16.9448 19.1731 14.8468 19.1731H8.45319C6.35518 19.1731 4.74211 17.3173 5.03427 15.2397L5.85198 9.4249ZM9.2709 7.54341C8.09335 7.54341 7.09562 8.41065 6.93164 9.57672L6.11393 15.3916C5.91403 16.8131 7.01771 18.0828 8.45319 18.0828H14.8468C16.2823 18.0828 17.386 16.8131 17.1861 15.3916L16.3684 9.57673C16.2044 8.41065 15.2066 7.54341 14.0291 7.54341H9.2709Z" fill="#1A2C49"/>
<path fill-rule="evenodd" clip-rule="evenodd" d="M9.46921 10.8145C9.77029 10.8145 10.0144 11.0585 10.0144 11.3596C10.0144 12.2628 10.7466 12.995 11.6498 12.995C12.553 12.995 13.2852 12.2628 13.2852 11.3596C13.2852 11.0585 13.5293 10.8145 13.8303 10.8145C14.1314 10.8145 14.3755 11.0585 14.3755 11.3596C14.3755 12.865 13.1551 14.0853 11.6498 14.0853C10.1444 14.0853 8.92407 12.865 8.92407 11.3596C8.92407 11.0585 9.16814 10.8145 9.46921 10.8145Z" fill="#1A2C49"/>
<path fill-rule="evenodd" clip-rule="evenodd" d="M8.92407 5.54514C8.92407 5.24407 9.16814 5 9.46921 5H13.8303C14.1314 5 14.3755 5.24407 14.3755 5.54514C14.3755 5.84621 14.1314 6.09028 13.8303 6.09028H9.46921C9.16814 6.09028 8.92407 5.84621 8.92407 5.54514Z" fill="#1A2C49"/>
</svg>
