<svg width="24" height="24" viewBox="0 0 24 24" fill="none" xmlns="http://www.w3.org/2000/svg">
<g id="icon_main_01">
<path id="Union" fill-rule="evenodd" clip-rule="evenodd" d="M5.17003 11.6052C5.17003 8.05116 8.05116 5.17003 11.6052 5.17003C15.1593 5.17003 18.0404 8.05116 18.0404 11.6052C18.0404 12.3584 17.9112 13.0801 17.6744 13.7503C17.5667 14.0549 17.7264 14.3892 18.031 14.4968C18.3356 14.6045 18.6698 14.4449 18.7775 14.1402C19.058 13.3466 19.2104 12.493 19.2104 11.6052C19.2104 7.40497 15.8054 4 11.6052 4C7.40497 4 4 7.40497 4 11.6052C4 15.8054 7.40497 19.2104 11.6052 19.2104C12.4418 19.2104 13.2479 19.0751 14.0022 18.8248C14.3089 18.723 14.475 18.3919 14.3732 18.0853C14.2714 17.7786 13.9403 17.6125 13.6337 17.7143C12.9967 17.9257 12.3149 18.0404 11.6052 18.0404C8.05116 18.0404 5.17003 15.1593 5.17003 11.6052ZM13.591 14.7921H12.7239C12.4981 14.7921 12.3084 14.6542 12.2813 14.4703L11.9016 12.393H11.7395L11.3599 14.4703C11.3238 14.6542 11.1341 14.7921 10.9173 14.7921H10.014C9.91157 14.7912 9.81243 14.7612 9.73227 14.7071C9.65211 14.653 9.59551 14.5778 9.57141 14.4933L9.00001 12.393H8.13361C7.90521 12.393 7.72576 12.1819 7.72576 11.9132C7.72576 11.6445 7.90521 11.4334 8.13361 11.4334H8.73893L8.21648 9.51307C8.16228 9.3062 8.31584 9.09933 8.5507 9.05336C8.79458 9.00738 9.03847 9.13764 9.09267 9.33685L9.66306 11.4334H10.986L11.3599 9.35983C11.3752 9.26948 11.4283 9.18683 11.5096 9.12704C11.5909 9.06725 11.6949 9.03434 11.8025 9.03434C11.9101 9.03434 12.0141 9.06725 12.0954 9.12704C12.1767 9.18683 12.2299 9.26948 12.2451 9.35983L12.6191 11.4334H13.942L14.5124 9.33685C14.5251 9.28761 14.5493 9.24105 14.5837 9.19993C14.6181 9.15882 14.6619 9.124 14.7124 9.09754C14.763 9.07108 14.8194 9.05354 14.8781 9.04595C14.9368 9.03836 14.9968 9.04088 15.0543 9.05336C15.2982 9.09933 15.4518 9.3062 15.3886 9.51307L14.8661 11.4334H15.4748C15.7032 11.4334 15.8826 11.6445 15.8826 11.9132C15.8826 12.1819 15.7032 12.393 15.4748 12.393H14.605L14.0336 14.4933C13.9885 14.6695 13.8078 14.7921 13.591 14.7921ZM13.0852 14.0183L12.7921 12.393H13.6809L13.2387 14.0183H13.0852ZM9.92414 12.393H10.8129L10.5199 14.0183H10.3663L9.92414 12.393ZM16.7194 18.8113C16.9156 18.6431 16.9384 18.3477 16.7702 18.1514L15.8621 17.092L19.032 17.092C19.2905 17.092 19.5 16.8824 19.5 16.624C19.5 16.3655 19.2905 16.156 19.032 16.156H15.8621L16.7702 15.0965C16.9384 14.9003 16.9156 14.6048 16.7194 14.4366C16.5231 14.2684 16.2277 14.2911 16.0595 14.4874L14.4892 16.3194C14.3389 16.4947 14.3389 16.7533 14.4892 16.9285L16.0595 18.7606C16.2277 18.9568 16.5231 18.9795 16.7194 18.8113Z" fill="#1A2C49"/>
</g>
</svg>
